<svg width="24" height="24" viewBox="0 0 24 24" fill="none" xmlns="http://www.w3.org/2000/svg">
  <path d="M16 2H8C4.5 2 3 4 3 7V17C3 20 4.5 22 8 22H16C19.5 22 21 20 21 17V7C21 4 19.5 2 16 2Z" stroke="#0d9488" stroke-width="1.5" stroke-linecap="round" stroke-linejoin="round"/>
  <path d="M12 17.5C14.7614 17.5 17 15.2614 17 12.5C17 9.73858 14.7614 7.5 12 7.5C9.23858 7.5 7 9.73858 7 12.5C7 15.2614 9.23858 17.5 12 17.5Z" stroke="#0d9488" stroke-width="1.5" stroke-linecap="round" stroke-linejoin="round"/>
  <path d="M10.5 10.5L13.5 13.5" stroke="#0d9488" stroke-width="1.5" stroke-linecap="round" stroke-linejoin="round"/>
  <path d="M13.5 10.5L10.5 13.5" stroke="#0d9488" stroke-width="1.5" stroke-linecap="round" stroke-linejoin="round"/>
</svg>